<svg width="42" height="42" viewBox="0 0 42 42" fill="none" xmlns="http://www.w3.org/2000/svg">
<path d="M18.1146 14.4519V17.3207H16.0146V20.8269H18.1146V31.2498H22.4313V20.8269H25.3271C25.3271 20.8269 25.6001 19.1457 25.7313 17.3061H22.448V14.9103C22.448 14.5498 22.9188 14.0686 23.3855 14.0686H25.7355V10.4165H22.5376C18.0084 10.4165 18.1146 13.9269 18.1146 14.4519Z" fill="#F8F8F8"/>
<path d="M20.8333 37.5C25.2536 37.5 29.4928 35.7441 32.6184 32.6184C35.7441 29.4928 37.5 25.2536 37.5 20.8333C37.5 16.4131 35.7441 12.1738 32.6184 9.04822C29.4928 5.92261 25.2536 4.16667 20.8333 4.16667C16.4131 4.16667 12.1738 5.92261 9.04822 9.04822C5.92261 12.1738 4.16667 16.4131 4.16667 20.8333C4.16667 25.2536 5.92261 29.4928 9.04822 32.6184C12.1738 35.7441 16.4131 37.5 20.8333 37.5V37.5ZM20.8333 41.6667C9.32708 41.6667 0 32.3396 0 20.8333C0 9.32708 9.32708 0 20.8333 0C32.3396 0 41.6667 9.32708 41.6667 20.8333C41.6667 32.3396 32.3396 41.6667 20.8333 41.6667Z" fill="#F8F8F8"/>
</svg>
