<svg width="229" height="43" viewBox="0 0 229 43" fill="none" xmlns="http://www.w3.org/2000/svg">
<path d="M12.51 34.3C9.25 34.3 6.65 33.68 4.71 32.44C2.79 31.2 1.78 29.46 1.68 27.22H5.73C5.83 29.06 6.43 30.39 7.53 31.21C8.65 32.03 10.29 32.44 12.45 32.44C14.23 32.44 15.54 32.13 16.38 31.51C17.22 30.89 17.64 29.97 17.64 28.75C17.64 28.09 17.49 27.52 17.19 27.04C16.89 26.56 16.3 26.12 15.42 25.72C14.56 25.32 13.29 24.96 11.61 24.64C8.97 24.12 6.74 23.38 4.92 22.42C3.12 21.46 2.22 20.05 2.22 18.19C2.22 14.55 5.53 12.73 12.15 12.73C15.39 12.73 17.83 13.27 19.47 14.35C21.13 15.41 22.04 16.83 22.2 18.61H18.21C17.93 17.15 17.27 16.12 16.23 15.52C15.19 14.9 13.77 14.59 11.97 14.59C10.39 14.59 9.21 14.86 8.43 15.4C7.67 15.94 7.29 16.63 7.29 17.47C7.29 17.93 7.42 18.34 7.68 18.7C7.96 19.06 8.51 19.42 9.33 19.78C10.17 20.12 11.39 20.47 12.99 20.83C15.25 21.33 17.04 21.83 18.36 22.33C19.68 22.83 20.74 23.55 21.54 24.49C22.34 25.41 22.74 26.64 22.74 28.18C22.74 29.46 22.31 30.56 21.45 31.48C20.61 32.4 19.42 33.1 17.88 33.58C16.34 34.06 14.55 34.3 12.51 34.3ZM32.4354 24.7L23.5854 13H29.0754L35.8854 21.85L43.1754 13H46.7454L37.5354 24.28V34H32.4354V24.7ZM48.9764 13H53.9864L64.7264 27.19V13H69.5264V34H66.1064L53.7764 17.5V34H48.9764V13ZM85.2495 34.3C81.3695 34.3 78.4095 33.37 76.3695 31.51C74.3295 29.65 73.3095 26.95 73.3095 23.41C73.3095 19.93 74.3195 17.28 76.3395 15.46C78.3795 13.62 81.3295 12.7 85.1895 12.7C88.5295 12.7 91.1395 13.32 93.0195 14.56C94.9195 15.78 96.0195 17.56 96.3195 19.9H92.3295C92.0095 18.16 91.2495 16.84 90.0495 15.94C88.8495 15.02 87.2795 14.56 85.3395 14.56C83.0995 14.56 81.3895 15.32 80.2095 16.84C79.0495 18.34 78.4695 20.53 78.4695 23.41C78.4695 26.35 79.0595 28.59 80.2395 30.13C81.4195 31.67 83.1295 32.44 85.3695 32.44C87.3095 32.44 88.8695 31.99 90.0495 31.09C91.2495 30.17 92.0095 28.84 92.3295 27.1H96.3195C96.0195 29.44 94.9195 31.23 93.0195 32.47C91.1395 33.69 88.5495 34.3 85.2495 34.3ZM111.152 34.3C108.652 34.3 106.492 33.87 104.672 33.01C102.852 32.15 101.452 30.91 100.472 29.29C99.5121 27.65 99.0321 25.69 99.0321 23.41C99.0321 21.17 99.5121 19.25 100.472 17.65C101.452 16.05 102.852 14.83 104.672 13.99C106.492 13.13 108.652 12.7 111.152 12.7C113.632 12.7 115.782 13.13 117.602 13.99C119.422 14.83 120.812 16.05 121.772 17.65C122.752 19.25 123.242 21.17 123.242 23.41C123.242 25.69 122.752 27.65 121.772 29.29C120.812 30.91 119.422 32.15 117.602 33.01C115.802 33.87 113.652 34.3 111.152 34.3ZM111.152 32.44C113.412 32.44 115.132 31.67 116.312 30.13C117.492 28.59 118.082 26.35 118.082 23.41C118.082 20.53 117.492 18.34 116.312 16.84C115.132 15.32 113.412 14.56 111.152 14.56C108.892 14.56 107.162 15.32 105.962 16.84C104.782 18.34 104.192 20.53 104.192 23.41C104.192 26.35 104.782 28.59 105.962 30.13C107.142 31.67 108.872 32.44 111.152 32.44ZM126.993 13H135.813C138.973 13 141.403 13.5 143.103 14.5C144.823 15.48 145.683 17.15 145.683 19.51C145.683 21.83 144.833 23.5 143.133 24.52C141.453 25.52 139.013 26.02 135.813 26.02H132.093V34H126.993V13ZM135.843 24.13C137.443 24.13 138.633 23.8 139.413 23.14C140.213 22.48 140.613 21.27 140.613 19.51C140.613 17.77 140.223 16.56 139.443 15.88C138.663 15.2 137.463 14.86 135.843 14.86H132.093V24.13H135.843ZM154.281 24.7L145.431 13H150.921L157.731 21.85L165.021 13H168.591L159.381 24.28V34H154.281V24.7Z" fill="white"/>
<path d="M197.145 9.9C196.735 9.9 196.395 9.78 196.125 9.54C195.865 9.3 195.735 8.995 195.735 8.625C195.735 8.255 195.865 7.95 196.125 7.71C196.395 7.47 196.735 7.35 197.145 7.35C197.555 7.35 197.89 7.47 198.15 7.71C198.42 7.95 198.555 8.255 198.555 8.625C198.555 8.995 198.42 9.3 198.15 9.54C197.89 9.78 197.555 9.9 197.145 9.9ZM198.255 10.65V18H196.035V11.43H192.855V18H190.635V11.43H189.165L189.345 10.65H190.635V9.855C190.635 9.195 190.865 8.69 191.325 8.34C191.795 7.99 192.47 7.815 193.35 7.815C194.02 7.815 194.58 7.905 195.03 8.085L194.835 8.88C194.625 8.69 194.36 8.595 194.04 8.595C193.66 8.595 193.365 8.705 193.155 8.925C192.955 9.145 192.855 9.465 192.855 9.885V10.65H198.255ZM200.882 7.755H203.102V18H200.882V7.755ZM205.504 10.65H207.709V11.745C207.879 11.375 208.179 11.075 208.609 10.845C209.039 10.615 209.524 10.5 210.064 10.5C210.804 10.5 211.404 10.64 211.864 10.92C212.334 11.19 212.669 11.575 212.869 12.075C213.089 11.525 213.414 11.125 213.844 10.875C214.284 10.625 214.784 10.5 215.344 10.5C217.424 10.5 218.464 11.425 218.464 13.275V18H216.244V13.14C216.244 12.53 216.119 12.07 215.869 11.76C215.629 11.44 215.274 11.28 214.804 11.28C214.244 11.28 213.814 11.54 213.514 12.06C213.214 12.57 213.064 13.315 213.064 14.295V18H210.904V13.77C210.904 12.96 210.769 12.345 210.499 11.925C210.239 11.495 209.864 11.28 209.374 11.28C208.844 11.28 208.434 11.5 208.144 11.94C207.864 12.38 207.724 13.01 207.724 13.83V18H205.504V10.65ZM223.881 18.15C221.741 18.15 220.486 17.395 220.116 15.885H221.766C221.866 16.375 222.086 16.745 222.426 16.995C222.776 17.245 223.276 17.37 223.926 17.37C224.516 17.37 224.976 17.255 225.306 17.025C225.646 16.785 225.816 16.465 225.816 16.065C225.816 15.775 225.646 15.52 225.306 15.3C224.966 15.08 224.501 14.925 223.911 14.835C222.631 14.635 221.706 14.36 221.136 14.01C220.566 13.66 220.281 13.185 220.281 12.585C220.281 11.935 220.591 11.425 221.211 11.055C221.841 10.685 222.761 10.5 223.971 10.5C225.131 10.5 226.046 10.685 226.716 11.055C227.396 11.425 227.791 11.97 227.901 12.69H226.251C226.151 12.23 225.921 11.88 225.561 11.64C225.211 11.4 224.756 11.28 224.196 11.28C223.086 11.28 222.531 11.605 222.531 12.255C222.531 12.445 222.576 12.605 222.666 12.735C222.766 12.855 222.956 12.97 223.236 13.08C223.516 13.18 223.926 13.275 224.466 13.365C225.696 13.575 226.601 13.88 227.181 14.28C227.771 14.67 228.066 15.19 228.066 15.84C228.066 17.38 226.671 18.15 223.881 18.15Z" fill="white"/>
<path d="M191.385 27.9C190.975 27.9 190.635 27.78 190.365 27.54C190.105 27.3 189.975 26.995 189.975 26.625C189.975 26.255 190.105 25.95 190.365 25.71C190.635 25.47 190.975 25.35 191.385 25.35C191.795 25.35 192.13 25.47 192.39 25.71C192.66 25.95 192.795 26.255 192.795 26.625C192.795 26.995 192.66 27.3 192.39 27.54C192.13 27.78 191.795 27.9 191.385 27.9ZM190.275 28.65H192.495V36H190.275V28.65ZM194.825 28.65H197.045V29.865C197.275 29.445 197.625 29.115 198.095 28.875C198.575 28.625 199.11 28.5 199.7 28.5C200.68 28.5 201.45 28.75 202.01 29.25C202.58 29.75 202.865 30.44 202.865 31.32V36H200.645V31.185C200.645 29.915 200.115 29.28 199.055 29.28C198.435 29.28 197.945 29.51 197.585 29.97C197.225 30.43 197.045 31.05 197.045 31.83V36H194.825V28.65ZM208.942 36.15C207.502 36.15 206.387 35.825 205.597 35.175C204.817 34.515 204.427 33.565 204.427 32.325C204.427 31.085 204.817 30.14 205.597 29.49C206.387 28.83 207.502 28.5 208.942 28.5C210.172 28.5 211.147 28.72 211.867 29.16C212.587 29.6 213.002 30.24 213.112 31.08H211.462C211.362 30.5 211.107 30.055 210.697 29.745C210.297 29.435 209.782 29.28 209.152 29.28C208.332 29.28 207.707 29.54 207.277 30.06C206.857 30.58 206.647 31.335 206.647 32.325C206.647 33.315 206.857 34.07 207.277 34.59C207.707 35.11 208.332 35.37 209.152 35.37C209.762 35.37 210.272 35.215 210.682 34.905C211.102 34.585 211.362 34.14 211.462 33.57H213.112C213.002 34.41 212.582 35.05 211.852 35.49C211.132 35.93 210.162 36.15 208.942 36.15Z" fill="white"/>
<path d="M176.68 7.89H180.7V35.76H176.68V7.89Z" fill="white"/>
</svg>
