<svg width="15" height="15" viewBox="0 0 15 15" fill="none" xmlns="http://www.w3.org/2000/svg">
<g clip-path="url(#clip0_15_387)">
<path d="M14.8629 14.1949L10.3083 9.61242C11.1572 8.5957 11.6688 7.28766 11.6688 5.85937C11.6688 2.62336 9.04546 0 5.80945 0C2.57343 0 -0.0499268 2.62336 -0.0499268 5.85937C-0.0499268 9.09539 2.57343 11.7187 5.80945 11.7187C7.27968 11.7187 8.62265 11.1759 9.65156 10.2811L14.1998 14.858C14.3829 15.041 14.6799 15.041 14.8629 14.858C15.0457 14.6749 15.0457 14.3782 14.8629 14.1949H14.8629ZM5.80945 10.789C3.08695 10.789 0.879839 8.58187 0.879839 5.85937C0.879839 3.13687 3.08695 0.929766 5.80945 0.929766C8.53195 0.929766 10.7391 3.13687 10.7391 5.85937C10.7391 8.58187 8.53195 10.789 5.80945 10.789Z" fill="white"/>
</g>
<defs>
<clipPath id="clip0_15_387">
<rect width="15" height="15" fill="white"/>
</clipPath>
</defs>
</svg>
