<svg width="42" height="42" viewBox="0 0 42 42" fill="none" xmlns="http://www.w3.org/2000/svg">
<path d="M26.5133 13.29C26.5133 13.29 27.1083 13.8733 26.5133 13.29C25.7158 12.3796 25.2763 11.2103 25.2767 10H21.6717V24.4667C21.6439 25.2495 21.3133 25.9911 20.7497 26.5351C20.1861 27.0791 19.4334 27.3832 18.65 27.3833C16.9933 27.3833 15.6167 26.03 15.6167 24.35C15.6167 22.3433 17.5533 20.8383 19.5483 21.4567V17.77C15.5233 17.2333 12 20.36 12 24.35C12 28.235 15.22 31 18.6383 31C22.3017 31 25.2767 28.025 25.2767 24.35V17.0117C26.7385 18.0615 28.4936 18.6248 30.2933 18.6217V15.0167C30.2933 15.0167 28.1 15.1217 26.5133 13.29Z" fill="#F8F8F8"/>
<path d="M20.8333 37.5C25.2536 37.5 29.4928 35.7441 32.6184 32.6184C35.7441 29.4928 37.5 25.2536 37.5 20.8333C37.5 16.4131 35.7441 12.1738 32.6184 9.04822C29.4928 5.92261 25.2536 4.16667 20.8333 4.16667C16.4131 4.16667 12.1738 5.92261 9.04822 9.04822C5.92261 12.1738 4.16667 16.4131 4.16667 20.8333C4.16667 25.2536 5.92261 29.4928 9.04822 32.6184C12.1738 35.7441 16.4131 37.5 20.8333 37.5V37.5ZM20.8333 41.6667C9.32708 41.6667 0 32.3396 0 20.8333C0 9.32708 9.32708 0 20.8333 0C32.3396 0 41.6667 9.32708 41.6667 20.8333C41.6667 32.3396 32.3396 41.6667 20.8333 41.6667Z" fill="#F8F8F8"/>
</svg>
