<svg width="42" height="42" viewBox="0 0 42 42" fill="none" xmlns="http://www.w3.org/2000/svg">
<path d="M20.8333 37.6665C25.2536 37.6665 29.4928 35.9106 32.6184 32.7849C35.7441 29.6593 37.5 25.4201 37.5 20.9998C37.5 16.5796 35.7441 12.3403 32.6184 9.21472C29.4928 6.08912 25.2536 4.33317 20.8333 4.33317C16.4131 4.33317 12.1738 6.08912 9.04822 9.21472C5.92261 12.3403 4.16667 16.5796 4.16667 20.9998C4.16667 25.4201 5.92261 29.6593 9.04822 32.7849C12.1738 35.9106 16.4131 37.6665 20.8333 37.6665V37.6665ZM20.8333 41.8332C9.32708 41.8332 0 32.5061 0 20.9998C0 9.49359 9.32708 0.166504 20.8333 0.166504C32.3396 0.166504 41.6667 9.49359 41.6667 20.9998C41.6667 32.5061 32.3396 41.8332 20.8333 41.8332Z" fill="#F8F8F8"/>
<path d="M31.25 14.6394C30.4833 14.9728 29.6604 15.2019 28.7958 15.3019C29.6791 14.7811 30.3541 13.9561 30.675 12.9749C29.8332 13.4654 28.9148 13.8105 27.9583 13.9957C27.556 13.574 27.0719 13.2386 26.5357 13.0101C25.9995 12.7816 25.4224 12.6647 24.8395 12.6665C22.4791 12.6665 20.5666 14.5519 20.5666 16.8749C20.5666 17.204 20.6041 17.5249 20.677 17.8332C18.984 17.7528 17.3263 17.3204 15.8096 16.5635C14.293 15.8066 12.9508 14.7419 11.8687 13.4374C11.4886 14.0772 11.2885 14.8078 11.2895 15.5519C11.2895 17.0103 12.0458 18.3019 13.1916 19.054C12.5134 19.0328 11.8497 18.8522 11.2541 18.5269V18.579C11.2606 19.5571 11.6058 20.5026 12.231 21.2548C12.8563 22.0069 13.7229 22.519 14.6833 22.704C14.0528 22.8707 13.3931 22.8949 12.752 22.7749C13.0315 23.6163 13.5659 24.3498 14.2813 24.8736C14.9966 25.3973 15.8572 25.6854 16.7437 25.6978C15.2228 26.8698 13.3555 27.503 11.4354 27.4978C11.0916 27.4978 10.752 27.4769 10.4166 27.4394C12.3759 28.6796 14.6478 29.3365 16.9666 29.3332C24.8291 29.3332 29.127 22.9207 29.127 17.3582L29.1125 16.8124C29.9506 16.2234 30.6748 15.4871 31.25 14.6394V14.6394Z" fill="#F8F8F8"/>
</svg>
