<svg width="42" height="42" viewBox="0 0 42 42" fill="none" xmlns="http://www.w3.org/2000/svg">
<path d="M20.8333 37.5C25.2536 37.5 29.4928 35.7441 32.6184 32.6184C35.7441 29.4928 37.5 25.2536 37.5 20.8333C37.5 16.4131 35.7441 12.1738 32.6184 9.04822C29.4928 5.92261 25.2536 4.16667 20.8333 4.16667C16.4131 4.16667 12.1738 5.92261 9.04822 9.04822C5.92261 12.1738 4.16667 16.4131 4.16667 20.8333C4.16667 25.2536 5.92261 29.4928 9.04822 32.6184C12.1738 35.7441 16.4131 37.5 20.8333 37.5V37.5ZM20.8333 41.6667C9.32708 41.6667 0 32.3396 0 20.8333C0 9.32708 9.32708 0 20.8333 0C32.3396 0 41.6667 9.32708 41.6667 20.8333C41.6667 32.3396 32.3396 41.6667 20.8333 41.6667Z" fill="#F8F8F8"/>
<path d="M26.923 13.5957H14.7438C12.3542 13.5957 10.4167 15.5124 10.4167 17.8749V23.8957C10.4167 26.2603 12.3542 28.1749 14.7438 28.1749H26.923C29.3126 28.1749 31.2501 26.2582 31.2501 23.8957V17.8749C31.2501 15.5103 29.3126 13.5957 26.923 13.5957ZM23.998 21.179L18.3001 23.8665C18.2652 23.883 18.2268 23.8904 18.1883 23.8881C18.1498 23.8858 18.1125 23.8738 18.0799 23.8532C18.0473 23.8326 18.0204 23.8042 18.0017 23.7704C17.983 23.7367 17.9732 23.6988 17.973 23.6603V18.1186C17.9733 18.0796 17.9837 18.0413 18.003 18.0073C18.0223 17.9734 18.05 17.9449 18.0834 17.9247C18.1167 17.9044 18.1548 17.8931 18.1938 17.8916C18.2328 17.8902 18.2715 17.8988 18.3063 17.9165L24.0022 20.7707C24.0396 20.7903 24.0709 20.8198 24.0926 20.8561C24.1143 20.8923 24.1256 20.9339 24.1252 20.9761C24.1247 21.0184 24.1126 21.0597 24.0902 21.0955C24.0678 21.1313 24.0358 21.1602 23.998 21.179V21.179Z" fill="#F8F8F8"/>
</svg>
